<?xml version="1.0" standalone="no"?>
<!DOCTYPE svg PUBLIC "-//W3C//DTD SVG 20010904//EN"
 "http://www.w3.org/TR/2001/REC-SVG-20010904/DTD/svg10.dtd">
<svg version="1.0" xmlns="http://www.w3.org/2000/svg"
 width="260.000000pt" height="260.000000pt" viewBox="0 0 260.000000 260.000000"
 preserveAspectRatio="xMidYMid meet">
<metadata>
Created by potrace 1.14, written by Peter Selinger 2001-2017
</metadata>
<g transform="translate(0.000000,260.000000) scale(0.100000,-0.100000)"
fill="#000000" stroke="none">
<path d="M642 2420 c-18 -17 -68 -101 -332 -560 -62 -107 -157 -273 -212 -368
-84 -145 -99 -177 -94 -202 3 -17 44 -95 91 -175 47 -80 85 -148 85 -151 0 -3
8 -17 19 -32 10 -15 47 -79 83 -142 92 -162 97 -171 178 -310 95 -164 108
-187 138 -240 46 -82 -18 -75 694 -78 406 -1 645 1 657 7 14 8 254 411 428
721 11 19 66 114 122 211 55 96 101 186 101 198 0 12 -60 126 -134 254 -74
128 -147 255 -162 283 -203 358 -333 574 -354 587 -22 13 -113 15 -657 15
-597 0 -633 -1 -651 -18z"/>
</g>
</svg>
